<?xml version="1.0" encoding="utf-8"?>
<!-- Generator: Adobe Illustrator 26.3.1, SVG Export Plug-In . SVG Version: 6.00 Build 0)  -->
<svg version="1.1"
	 id="SVGRoot" xmlns:cc="http://creativecommons.org/ns#" xmlns:inkscape="http://www.inkscape.org/namespaces/inkscape" xmlns:dc="http://purl.org/dc/elements/1.1/" xmlns:svg="http://www.w3.org/2000/svg" xmlns:rdf="http://www.w3.org/1999/02/22-rdf-syntax-ns#" xmlns:sodipodi="http://sodipodi.sourceforge.net/DTD/sodipodi-0.dtd"
	 xmlns="http://www.w3.org/2000/svg" xmlns:xlink="http://www.w3.org/1999/xlink" x="0px" y="0px" viewBox="0 0 250 250"
	 style="enable-background:new 0 0 250 250;" xml:space="preserve">
<style type="text/css">
	.st0{fill:#4A8537;}
</style>
<sodipodi:namedview  bordercolor="#666666" borderopacity="1.0" id="base" inkscape:current-layer="layer1" inkscape:cx="125" inkscape:cy="125" inkscape:document-units="px" inkscape:pageopacity="0.0" inkscape:pageshadow="2" inkscape:window-height="713" inkscape:window-maximized="1" inkscape:window-width="1299" inkscape:window-x="67" inkscape:window-y="27" inkscape:zoom="2.0149341" pagecolor="#ffffff" showgrid="false">
	</sodipodi:namedview>
<g>
	<path class="st0" d="M209.8,222.3c0-6.6-1.4-12.2-2.4-17.9c-0.9-5.3-1.8-10.5-1.9-15.9c-0.1-6.2,2.2-11.2,6.1-15.8
		c4.3-5.1,8.6-10.1,12.7-15.3c4.9-6.2,9-12.8,11.3-20.5c1.1-3.6,1.6-7.2,1.3-10.8c-0.7-7.5-6.5-9.6-11.9-8.1
		c-3.5,0.9-6.4,2.9-8.9,5.4c-5.4,5.4-10.7,10.8-15.7,16.5c-7.2,8.2-14.1,16.6-21.3,24.8c-5,5.7-10.9,10.6-17.6,14.3
		c-3.1,1.7-6.6,2.6-10.1,3.6c-5.9,1.6-11.5,3.8-16.3,7.7c-5.4,4.3-8.7,9.9-9.2,16.7c-0.2,3.1,0.7,6.1,2.7,8.6
		c2.2,2.7,5.2,2.8,8.2,2.1c3.2-0.7,6.3-1.6,9.3-2.6c4.9-1.6,9.2-1,13,2.7c2.5,2.5,5.1,5,7.5,7.7c4.5,4.9,9.1,9.7,14.5,13.7
		c2.3,1.7,4.9,3.3,7.6,4.2c7.3,2.3,12.3,0.5,16.5-5.5C208.5,232.9,210,227.5,209.8,222.3z"/>
	<path class="st0" d="M71.9,14.9C60.9,15,52.3,19.5,46.6,29c-2.5,4.2-3.7,8.9-4.4,13.8c-0.7,5.1-1.3,10.3-2.1,15.4
		c-0.7,4.2-2,8.3-3.9,12.1c-3.3,6.9-6.9,13.7-9.3,21c-2.1,6.5-3.6,13.2-3.2,20.1c0.6,8.7,3,16.8,9.3,23.2c1.3,1.3,2.9,2.4,4.5,3.3
		c6.2,3.5,11.5,1.3,15.2-4.2c2.7-3.9,3.7-8.3,4.2-13c0.5-5.2,0.2-10.5,1.4-15.7c1.1-5,2.7-9.7,5.9-13.7c5.8-7.4,11.4-14.9,17.2-22.2
		c4.9-6.3,9.5-12.7,12.7-20c1.8-4.1,3.1-8.4,3.2-13.1c0.2-8.9-5-15.7-12.8-18.7C80.6,15.6,76.3,14.8,71.9,14.9z"/>
	<path d="M194.1,214.2c1.7,3.7,3.1,7.5,4.4,11.5c0.5,1.5,1,2.9,1.8,4.2c0.5,0.9,1.2,1.7,2.1,2.2c0.8,0.5,1.5,0.1,1.6-0.8
		c0.1-0.9,0.1-1.9-0.1-2.8c-2-6.9-4.4-13.6-8-19.9c-3.2-5.3-7.9-8.7-13.7-10.5c-6.9-2.1-13.9-4.1-20.8-6c-3.1-0.8-6.1-2.2-9.4-2.4
		c-1.2-0.1-1.2-1.1-1.3-1.9c-0.4-2.1-0.8-4.2-0.9-6.3c-0.1-2.1-0.5-4.2-0.6-6.3c-0.1-1.4,0.4-2,1.4-2.6c2-1.2,3.9-2.4,5.7-3.8
		c8.5-6.5,14.6-14.7,18.8-24.4c0.2-0.5,0.5-1.1,0.7-1.6c0.3-0.7,0.7-0.9,1.5-1.1c8.2-1.8,13.2-6.2,14.8-14.5
		c0.4-2.1,0.4-4.5-0.4-6.6c-0.6-1.6-0.4-2.9,0.2-4.4c1.6-4.1,2.8-8.4,3.1-12.8c0.1-1.4,0.7-1.7,1.9-1.7c1.1,0,2.2,0.1,3.3-0.1
		c4.8-0.9,8-3.8,9.5-8.3c1.2-3.5,1.5-7,1.2-10.8c-1.2-12.6-7.2-22.9-15-32.4c-5.6-6.8-12.4-11.9-20.2-15.8c-4.1-2-8.6-3.1-13.2-3.8
		c-4.3-0.7-8.4-0.1-12.9,0.5c1.2-1.7,2.8-2.3,4.2-3.1c1.9-1.2,4-2.3,5.9-3.5c5.1-3.3,3-8.4,0-10.6c-5-3.8-10.6-3.9-16.2-1.4
		c-3.9,1.7-7,4.5-9.9,7.5c-3,3-3.1,3-5.4-0.5c-1.8-2.8-3.8-5.5-6.8-7.1c-3.2-1.8-6.5-2.5-10-1.4c-0.6,0.2-1.3,0.5-1.9,0.8
		c-5,2.7-5.4,7.7-1.1,11.2c2.8,2.3,6,3.9,8.9,6c1.6,1.2,2.5,2.1,3.3,3.7c-0.9,0.3-1.7-0.3-2.4-0.5c-6.3-1.9-12.7-3.2-19.3-3.1
		c-10.9,0.2-21.2,3-30,9.8c-5.7,4.4-9.9,10-13.1,16.4c-2.8,5.6-3.8,11.5-3.3,17.6c0.5,6.1,2.5,11.6,6.5,16.3
		c1.5,1.8,3.3,3.3,5.4,4.2c2.1,0.9,2.7,2.5,2.8,4.4c0.1,2.9,0.8,5.7,1.4,8.5c0.6,2.8,1.4,5.6,2.7,8.2c0.4,0.9,0.4,1.6-0.1,2.4
		c-4.2,6.9,0.3,16.3,5,19.9c2.7,2.1,5.8,3.6,9.1,4.6c1.2,0.4,1.9,0.9,2.3,2c0.9,2.4,1.7,4.8,2.8,7.1c2.4,4.8,5.5,9.1,8.9,13.3
		c3.9,4.8,8.8,8.2,14,11.4c1.2,0.7,3.2,0.6,3.6,2.1c0.3,1.2-0.5,2.6-0.6,4c-0.4,2.6-0.8,5.2-0.6,7.9c0.1,1.1-0.4,1.6-1.5,1.9
		c-4.5,1.3-9,2.6-13.5,4c-4.7,1.4-9.3,3.4-13.6,5.7c-6.4,3.5-10.4,9-12.4,15.9c-0.9,3.2-1.6,6.4-2.3,9.6c-0.2,0.9-0.1,1.9-0.1,2.8
		c0,1,0.7,1.5,1.6,1.8c1,0.3,1.6-0.2,2.1-1c0.9-1.5,1-3.2,1.3-4.9c0.6-2.8,1.3-5.6,2.2-8.4c2.1-6.4,6.6-10.6,12.6-13.3
		c5-2.3,10.3-4.1,15.6-5.6c2.5-0.7,4.9-1.4,7.3-2.2c1-0.3,1.5-0.1,2,0.9c3.3,6.3,9.2,8.5,15.8,9.2c4.9,0.5,9.4-0.9,13.3-4.2
		c1.4-1.2,2.6-2.7,3.5-4.3c0.6-1.1,1.2-2.3,1.8-3.5c8.6,2.8,17,5.1,25.5,7.4c2.1,0.6,4.3,1.2,6.3,2
		C188.4,205,191.8,209.1,194.1,214.2z M84.6,136.2c-5.4-1.6-9.3-4.5-10.9-10.1c-1.4-4.9,2-11.1,6.9-12.3c0.8-0.2,1.4-0.1,1.4,0.9
		c0,1.3,0.6,2.5,0.5,3.8c-0.1,3.8,0.7,7.5,1.2,11.3C84,131.9,85,133.8,84.6,136.2z M177.8,136.1c1-5.8,2.1-11.7,2.2-17.6
		c0-0.9,0.7-1,1.4-1.1c3.1-0.2,5.7,1.8,6.3,5.1c1.1,6.2-3.5,13.2-9.7,14C177.9,136.4,177.7,136.2,177.8,136.1z M120.8,179.5
		c0.2-1.1,0.8-1.3,1.8-1.2c0.4,0.1,0.8,0.1,1.3,0.1c3.5,0.5,6.9,0.5,10.4,0c3.1-0.4,6-1.2,8.9-2.2c1.5-0.5,1.8-0.4,1.8,1
		c0,4,0.8,8,1.5,11.9c0.7,4.1-1.1,6.7-3.8,9c-2.7,2.3-6,3.1-9.7,2.9c-3,0.3-5.8-0.6-8.4-2.1c-2.2-1.3-4-3-4.4-5.7
		C119.3,188.6,119.8,184,120.8,179.5z M173.9,115.6c-2,0-4.1,0-6.1,0c-2,0.1-2.1,0.2-2.5-1.7c-0.4-1.8-1.1-3.4-2-4.9
		c-0.7-1.2-1.9-1.1-2.6,0.1c-0.6,0.9-0.7,1.9-0.4,3c0.2,0.7,0.5,1.4,0.7,2.2c1,4.3,0.2,8-3.3,11c-2.9,2.5-9,2.5-11.8-0.4
		c-2.5-2.6-3.8-5.6-3.8-9.2c0-1.4-0.1-2.7-0.8-3.9c-0.8-1.4-1.8-1.5-2.7-0.1c-0.5,0.7-0.7,1.5-0.8,2.4c-0.1,2.7-0.3,2.6-2.9,2.5
		c-4,0-8-0.7-12-0.5c-0.7,0-1.4,0-2,0c-1.9,0-2.1-0.2-1.9-1.8c0.1-1-0.2-1.9-0.7-2.7c-0.8-1.5-1.7-1.5-2.7-0.1
		c-0.6,0.8-1.1,1.7-1.2,2.8c-0.1,1.3-0.6,2.5-1,3.7c-2.2,5.5-8.3,8.3-13.9,3.5c-2.1-1.8-3.1-4.2-2.3-7.1c0.3-1.2,0.7-2.5,1.2-3.6
		c0.5-1.2,0.5-2.5-0.1-3.7c-0.6-1.1-1.2-1.3-2.2-0.5c-1.3,1.1-2,2.5-2.5,4.1c-0.4,1.2-0.3,2.9-1.3,3.4c-1.1,0.6-2.7,0.2-4,0.2
		c-1.9,0-2-0.1-2-2.1c0-5.1,0-10.2,0-15.4c0-1.4,0.4-2.2,1.7-2.8c2.4-1,4.5-2.4,6.5-4c1.5-1.2,2.8-2.7,4.2-4.1c2-1.9,4-3.7,6-5.5
		c2-1.8,2.5-1.8,4.4,0.1c1.3,1.3,2.7,2.4,4.3,3.2c2.6,1.3,5.7,0.7,7.8-1.3c1.4-1.4,2.4-3.1,3.3-4.8c1-1.9,1.7-4.1,3.1-6
		c0.9,0.6,1.2,1.3,1.6,2c3.3,5.6,8,9.6,13.8,12.4c3.9,1.9,8,2.3,12.2,1.8c3.2-0.3,6-1.9,8.2-4.3c1.5-1.7,1.7-1.7,3.2,0
		c2.4,2.8,5,5.4,7.6,8c0.6,0.6,0.7,1.3,0.8,2.1c0.1,2.2,0.3,4.4,0.6,6.6c0.6,4.6,0.1,9.2,0.4,13.8
		C175.9,115.3,175.1,115.6,173.9,115.6z M144.2,170.8c-8.9,4.4-18.2,4.9-27.4,0.9c-5.9-2.5-10.8-6.4-15-11.2
		c-5.1-5.9-8.8-12.5-11.2-19.9c-2-6.2-3-12.5-3.8-18.9c-0.1-0.8,0-1.5,0-2.3c0-0.6,0.3-0.9,0.9-1c1.8-0.1,3.3,0.7,5,1
		c1.1,0.2,1.2,1.4,1.6,2.1c3,4.9,9.2,7.6,15,6.2c3.1-0.7,5.3-2.8,6.8-5.5c0.9-1.7,2.1-2.2,3.9-2.1c5.2,0.3,10.4,0.7,15.6,0.5
		c0.1,0,0.2,0,0.3,0c1.8,0,3.3,0.5,3.9,2.5c0.3,0.9,0.9,1.6,1.4,2.4c3.7,5.9,14.4,8.2,20.2,2.4c1.7-1.7,3.1-3.6,3.6-6.1
		c0.3-1.4,1-1.9,2.5-1.9c2.6,0.1,5.3,0.2,7.9-0.2c0.5,0.7,0.5,1.6,0.3,2.3c-0.6,2.9-0.7,5.9-1.3,8.8
		C170.7,149.2,160.8,162.6,144.2,170.8z"/>
	<path d="M208.5,53c-1.3-0.7-2.2-1.9-3-3c-4.4-6.1-9.2-11.8-15.4-16.3c-5.5-4-11.5-6.9-18-9c-1.2-0.4-2.4-0.8-3.3-1.8
		c-0.9-1.1-0.6-2.5,0.8-3.1c1-0.4,2-0.3,3,0c5.8,1.8,11.4,4.1,16.5,7.3c9.1,5.6,16,13.4,22.1,22.1c0.5,0.8,0.9,1.6,1.2,2.5
		c0.4,1.4,0.1,1.9-1.5,1.9C210,53.8,209.2,53.4,208.5,53z"/>
	<path d="M194.6,171.5c-1.3,1-2.5,2-4,2.7c-3,1.3-5.9,2.6-8.9,3.8c-1.6,0.7-3.3,0.8-4.7,1.1c-1,0-1.6,0-2.3-0.4
		c-1.5-0.9-1.7-1.5-0.3-2.7c1.3-1.1,2.8-2,4.3-2.7c3.6-1.6,7.2-3.1,10.8-4.6c1.3-0.5,2.8-0.9,4.2-1.2c1.8-0.4,2.6,0.6,2.1,2.4
		C195.7,170.6,195.2,171.1,194.6,171.5z"/>
	<path d="M80.9,176.6c0.5,0.1,1,0.2,1.5,0.4c3.4,1.7,6.4,3.9,8.6,7c0.5,0.7,0.9,1.5,0.9,2.2c0.1,1.5-0.4,1.9-1.7,1.4
		c-4.3-1.9-7.9-4.7-10.8-8.3c-0.4-0.5-0.9-1.1-0.4-1.8C79.4,176.8,80.1,176.5,80.9,176.6z"/>
	<path d="M197.8,187.2c0.3,1.4-0.2,2.4-1.4,3c-2.7,1.4-5.5,1.8-8.3,0.4c-2-1-2.1-2.1-0.1-3.2c2-1.2,4.3-1.7,6-1.8c0.8,0,1,0,1.3,0
		C196.3,185.7,197.5,185.8,197.8,187.2z"/>
	<path d="M67.6,202.2c0.9-0.2,2-0.3,2.5,0.7c0.6,1,0.5,2.1-0.3,3.1c-1.2,1.5-2.7,2.4-4.8,2.2c-0.8,0.2-1.6-0.2-2.3-0.6
		c-1.6-0.9-1.7-1.8-0.4-2.9C63.9,203.4,65.6,202.6,67.6,202.2z"/>
	<path d="M198.1,199.8c-0.7-1-0.4-2,0.7-2.5c0.9-0.5,1.8-0.5,2.7-0.1c2.2,1,3.4,2.7,3.8,5.2c0.1,1.1-0.5,1.8-1.5,1.5
		C201.5,203.2,199.4,201.9,198.1,199.8z"/>
	<path d="M75.9,193.1c-1.6-0.2-2.8-1-4-2.1c-0.9-0.8-0.8-1.5,0.3-2.3c1-0.7,2.1-1.1,3.3-1c0.4,0,0.9,0,1.3,0.1
		c1.4,0.4,2.4,2.1,2,3.6C78.5,192.8,77.7,193.3,75.9,193.1z"/>
	<path d="M216.2,61.6c1.4,1.1,2.8,2.2,3.1,4.2c0.1,0.8,0,1.5-0.9,1.9c-2.4,1-4.8-0.5-4.7-3.1c0-1,0.4-1.8,0.9-2.6
		C215,61.3,215.6,61.2,216.2,61.6z"/>
	<path d="M218.9,70.7c1.4,0.8,2.6,1.8,3.1,3.5c0.1,0.4,0.1,0.9-0.2,1.2c-1.1,0.9-2.3,0.8-3.6,0.5c-1.3-0.3-1.5-1.2-1.6-2.4
		c0-0.7,0.3-1.5,0.8-2.2C217.8,70.6,218.4,70.4,218.9,70.7z"/>
	<path d="M132.6,152.1c-1.4-0.6-1.7-1.5-0.8-2.8c0.6-0.9,1.5-1.1,2.5-0.9c0.7,0.2,1.5,0.4,2.2,0.4c4.1-0.1,7.1-2.2,9.5-5.2
		c0.7-0.9,1.3-2,1.9-3c0.8-1.1,1.8-1.3,2.6-0.7c1,0.7,1.5,2.3,1,3.4c-2,4.4-7.5,9.8-14.1,9.6C135.8,153.1,134.1,152.7,132.6,152.1z"
		/>
	<path d="M124.1,139c-0.9-0.2-1.4-0.8-1.8-1.6c-1-1.9-0.8-4-1.3-6c0-1.3,0.8-2.8,1.7-2.9c1.4-0.2,1.8,1.1,2.5,1.9
		c0.2,0.2,0.3,0.6,0.3,1c0.2,1.8,0.5,3.5,1.1,5.2C127.3,138.3,126.4,139.5,124.1,139z"/>
	<path d="M164.1,102.2c-1.5,0.1-3.1,0-4.4,0c-4.4,0.3-8.5-0.7-12.7-0.5c-1.4,0.1-2.8-0.6-4.2-0.9c-0.7-0.2-1.3-0.6-1.2-1.4
		c0-0.7,0.5-1.2,1.1-1.6c0.7-0.4,1.5-0.2,2.3-0.3c5.3-0.3,10.5,0.6,15.8,0.5c1.3,0,2.7,0.4,3.9,1c0.8,0.4,1.6,1,1.4,1.9
		C165.9,102,164.9,102.1,164.1,102.2z"/>
	<path d="M108.3,102.1c-1.2,0.1-2.4,0-3.6,0c-1.4,0-2.7,0.3-4.1-0.2c-0.7-0.3-1.5-0.6-1.5-1.5c0-0.9,0.4-1.6,1.2-2.1
		c0.4-0.2,0.8-0.3,1.2-0.3c1.4,0,2.7-0.1,4.1,0c1.2,0.1,2.3,0.5,3.3,1.3c0.6,0.5,0.9,1,0.7,1.8C109.5,101.8,108.9,102.1,108.3,102.1
		z"/>
	<path d="M150.4,112.4c2.1,0,3.8,0.7,5,2.5c0.6,0.9,0.3,1.5-0.5,1.8c-0.5,0.2-1,0.2-1.5,0.3c-1.3-0.1-2.5-0.5-3.7-0.9
		c-1-0.3-1.2-1.1-1.1-2C148.7,113.1,149.4,112.4,150.4,112.4z"/>
	<path d="M107.6,115.3c-0.8-0.1-1.6-0.1-2.3-0.4c-1.4-0.4-1.8-1.5-1-2.7c0.9-1.5,2.5-1.7,4.2-0.4c0.8,0.6,2,1.3,1.7,2.6
		C109.8,115.7,108.4,114.8,107.6,115.3z"/>
</g>
</svg>
